<mxfile host="app.diagrams.net" modified="2023-12-21T09:11:34.199Z" agent="Mozilla/5.0 (Windows NT 10.0; Win64; x64) AppleWebKit/537.36 (KHTML, like Gecko) Chrome/120.0.0.0 Safari/537.36" etag="zYzep4Q5SmgsOfJ980Rq" version="22.1.11" type="github">
  <diagram name="第 1 页" id="YdxsiDBNZPq4WGCYYQUn">
    <mxGraphModel dx="1816" dy="509" grid="1" gridSize="10" guides="1" tooltips="1" connect="1" arrows="1" fold="1" page="1" pageScale="1" pageWidth="827" pageHeight="1169" math="0" shadow="0">
      <root>
        <mxCell id="0" />
        <mxCell id="1" parent="0" />
        <mxCell id="iYR4mTYANWKFLJ5COur8-11" style="edgeStyle=orthogonalEdgeStyle;rounded=0;orthogonalLoop=1;jettySize=auto;html=1;entryX=0.5;entryY=0;entryDx=0;entryDy=0;" edge="1" parent="1" source="iYR4mTYANWKFLJ5COur8-1" target="iYR4mTYANWKFLJ5COur8-3">
          <mxGeometry relative="1" as="geometry" />
        </mxCell>
        <mxCell id="iYR4mTYANWKFLJ5COur8-1" value="需求分析" style="rounded=1;whiteSpace=wrap;html=1;comic=1;fontFamily=Comic Sans MS;fillColor=#ffe6cc;strokeColor=#d79b00;fontStyle=1;container=0;" vertex="1" parent="1">
          <mxGeometry x="-670" y="180" width="160" height="40" as="geometry" />
        </mxCell>
        <mxCell id="iYR4mTYANWKFLJ5COur8-2" value="" style="shape=image;verticalLabelPosition=bottom;labelBackgroundColor=default;verticalAlign=top;aspect=fixed;imageAspect=0;image=data:image/png,iVBORw0KGgoAAAANSUhEUgAAAWoAAAI5CAYAAACIKnAnAAAAAXNSR0IArs4c6QAAAARnQU1BAACxjwv8YQUAAAAJcEhZcwAADsMAAA7DAcdvqGQAAHk6SURBVHhe7b0LmB1Vme+9ujvpXDr3CwkYIFwPURhRHC7ng4EIOHiOF3QQPV6eET2jg5949/P6jGGOqPM5oyLzyKhHYT5RkZNBxJkjM4CJwhkgimQABSGQCFFyTyd00klfv/WrXW9ndXVV7dq79+6uTv9/5KXrXmutqvVf73prVW0nhBBCCCGEEEIIIYQQQgghhBBCCCGEEEIIIYQQoiFc4+2OymQh2JZ9ysyLvTU7nW/y9l8qk6WGNJLWhdHcIf6f2I6P5mojeawsOHaZ7xfKhTKoF9u/aBlyXyY519vXKpN1wTE5RjXYruh1M9K2Zxl5rnbvp+U1DY6Xdn82Eq7PL7xNhPqaCRVpsDJZCLatRdjHA27cZqaTG4vj7/LWzBusEWzwRlqTFYe0s7zW9Fve+VsNjm3nr7eScC3f7Q0xM8E3gSxqWYT3Pmm92VsR0TNs/yL7IBZsi2CEkK+i5ZlG0frLeYtsZ9h1Tt43zLM8797nOrG+SJ7sPJR9LVCelLtZHlZG3EdNpyX+O1oo6NmVyYgve3uZt/Oiuerc4+2X3j4YzVV43tt/VCYjKJg/rUyOmn/1dkllMoJjV4MbiDzt9raOBQUIz1EEy+MPvNVayYrkoRay0s61Xu/tKW8nsiCG9H7fWz1p55hrvM33dr2393jLg0pk98wfsyAHKp95l2d64xwhXM8F3mq9v7Lqjh2H9WG+/tLb172FkLajvD3mbScLPLY/dedeFuRg237M2//LghgrH67RWd7s2EUJ8xBCHbBjMb3DW7Iu5WH3DmW+0ltYv2n8/sZb2vHs3oJayuW/envc22XeQl4e/wXu4RMqk8P4nLdPVSZHgDj/gzfy8QUW1MC/e6uW/hE0SqitYBpJ8oLRop5RmczEKiIVOO/mfNBbeBFIfzVGI9TJhiyLZd4QFS4+FzSPZENWi2dThKx7g+vwSW9JccB7eaM3Ksf/ZkGNJMX6e94+7S0LrnXedbBrbIJi9wT3KQL2dm9pAlmtTlTbLrmefP1Pb9w7yTIzcQrFx/avJki2b1ZjxX10pbc8wckiK49cY/KB+F/sDfFMa4DyMJEj3dSPsJ7SU0I0/5s384bD+yJcngWNH9fXHIlQ5LMI63Snt195e8Zb2rnC9NRD8h4YU0h82GWwLlG4LM/Yln3CZRyzVrjB7LyNxtLJOWrF0tVIS6YjLLsss33T1iUtCws7UCEMpsN0FbWk542och8gMqTBjlmPcfw0staxjHXVqLadrQ/LkHyRJ/6GILbJbdP2TxKWTVY94VwWiqoWIrJ0ZBlp4hhMm3iRH+brradYsjzIF8cP7y1LW9FemqWL/YBjMc3+HN+MectbUcirlSnGvZrMQxqWJvatp7yqeg/1QuaLeCcGmailC5WFnbdI9yiLrAvHBSniUaflwdKFp7iJBaNguTc8pXrKi3KGeq87lfVfvCXPzY1ImsxrtZ4N2+Vxo7ek10I5Z/WGqFyci3Ks1Us0su61ovdste3IDz2LtHsQ0SDU8SJveKEISK0eNcegnCnfat6sXa+0UEMIwvWfK5MR7/KGZ4v3Z3zcG0JjoRSmq3mVlgeu2zEsiJnrbU9lshCEKn5amRwizePl3nmyMulO8pZ1HwF5JjxUtB4hsKFnD3jqXAuu99MsSEB6vuuN61ntGowL3GxUiFqMfUaLnZeLUC/sz03IsWoxa2nTYH0yXXQBs1pjwgvskwbHqLe82C8rjUWwfJi3AuZNk3/Lj21XlNCDysI8Os6T9Eo4L2VW5DgcI63sLM2Ub55Ve4BmHiDXF7NrybLQwLbluEaYjiTk085Pg1UEzs/2aeWWRXj9wnPa/nYtWM62ZlYHbN62Z5rljTSOmcTKM21dEsq36Lbkw/IWevbmlbOOMglhne1DORW5N8ccuzAUXBErWmDVsPOm3eRFqTctdu40rLLajUsFZlsuJPlPkncsjsF6jlkrHDPruNWwGxsL04xXk1yWl/4kVgny8mPbYFaGIVZhqBDJxo91pMeM7ThOuAxsXVEzOB/nIP8cg2Mnt7XzkUe2tfvT7v3wfrV0JO/hUDDT8pmHdb0x7r0QBIRzhWbnYdr25a+VvV3zpPhY2pPYcs6dPFetZnWHY4aQFiv75Lo0OFaRbSlnC/dx7ZKwLDwv87Y9lla/S4NdmKJYJkeLnZeLUC/sn6zIRcwuVlG4gLYPFzZskTleLccqCses97iWJsxuPvOsSH8oHLWk30SY7dM8D87BeixNpA0TlGR3mIpj18gEiGPZMgz4yzrylmdWCQ2r8Ga2nvSwLk9QOR7bhverpSNcRr7tuLWKtBGKNeewcrY0FDHbz+aTWNqTpOWpXqy8OWaINR5p69LIOk4alH+aSBscy+5hM65X8l6um2bHqGuhnphrEjvvaGLUFHItIzsMi8vWUqZUuP/hjfhuOJSKi0yMsNHXh7xBrcflRiSeZxC7/JY34oHkOTnSI7wOWYSjVigH9rFnAPwlhvkhb4wwAYb98TQ+5KXe5lUmo2OwH2TFbvHGGHGQdq9REYmjVnsin7YdjcnvvZEfhI+4c9oIBWtoLN+2bV6MmvMhspRz2kiJWrD8G5TTr72F8WnjDd4oz7DciQuTd9IMp3sLY66IFfUmK/5veSLftWIxabsXw2uYvD+LaEnacWoBEWbky3/3Zvcd9y712OaB8iO2TTnXq0lNgwuDKHBBihjbsk8atr4ZxrGTsDwrLXlYnvMwzyjZOnPTYIalr9HUe1zzRM0rs3IjH0kxAiuLPEuWMULLsUKP0bzIImZess2H5WlYPpLn5rrYNajF0mA550jeW+TJ8pP0ZsNjWR5sGWlj3kRqNAZ2D2JWzkksXVzvELYPPcewF2iednIfsPK189n+tZhdM47BsTgmhOVq8fjk9U2DYxTdFtieho7rkLwvWUZdsPyRNtKS3A4Le3Nh+eXSbI+66PHJQFbLRgEw5rUIRcdRG2mjDkhLszzq0KOh5WWccPL8QBqgDB516IV+1hteSLWxoHb9w1EDSbLGqXKz27XjRj7VW3JM+R+8pT1lB0QGjy+ZRoSEMgfuj3/zdos3PEJLb62klSMVOq2MqLj0DsJxzZbWPI8aOCbT9abTCNNLeVCG/A1fCKGXwigG6kD4MkfoTZM3/oZ5oZ4WHVdNforwXm+kBbJehLJyxXP9e2+hl2zlWy8ch/H41qszuI+4f37u7U5v9Px4x4NyCXsYgGif7Y0RH6/whkYYyR5JJo0QgjQhLTo8y+DmSxPHNCHNI+0mr5VmCjVQMT7ijXAHhCEPQKh4QYPl4Zt/jaAeobabnZuKl3ZqEepG3F8mJOEbXdxzYfjB7kGrKCZsIWGl5fpag06F5kWjtBeSqr1hm3aP2fULHQ8anH/xlrzWRYXasHwbDHNDRDjuN1iQgeU77XpYw1INhPD/83a1N16wwVsEu0fxpLmnCdllNaJFIU3UfY5F3ri2aWUNlAkOBOW6wlso1GnaZHCduLZ5dR2RJsRH3hge+Kg33nRM5q+W+53zkk7IylNToDBIaNLM7edv2nrMulFZ23DsWmAfjle0xU6D/TlOrdi5i0JLyz54BCGkvd40VIPj1pJG4MZCUMDSZvNZ1FoWBmWCMIeknTN5fNYxn3fdudcsdMP+9BSYzns4V28+2MeEjDxxbozpkLR02znz8mJY2bBPHmxDPrMg/2F4y7C0p5WRhRnYhnW23Wjg2lv+OR7XqBqc28q1aHlALdsC52CfNOM4WNq6pGXda+MCAkvCkxeYGzOscHYjpN3E9VDLTZ4F+5MejlWLsQ/7JiH/yYsVGt5WOG8VgJ5EuDzNar3oHDctjUXhnOwfXsM0KI96zmP7cR7DxCystMnjpwleiN2PlDV/2R8QJa5bsnEwGpEPuy/SnI60dKeVQRaWr2rXg20sz0nCNIbHsbqZJtLAevahDNOuUT3Ycbj36xE08pKX15BatgW7LqO1Itd1BI3omiaxmGbaE2oSCuF5ueD2xk+1LnU1KMyyhT64MEW6lvVQaz7Tyr8WLC9FQx9ZIQMjmXZL3yJvRcIDlo+0bQwqPKNTEB266ZzDusYmBoQQkh/ugbQ39IzV3rK6+BY3NbK+UZGXtyLXFpEk3FDtGxhhnpNQ//7J2/u8hSN3KC+MkALQXSdEFJ7H0kp9gbS3AWlMij5jsg8kEe6wHkkeydCo3Z9ZeQ2pZVsgH2HYybCYPsdJvj0ZwtuVdWtTI4Uar4Qbxy7cW73t9RZigkViQ3il9vPeLG7IV/RqzoynUUJd9OKFJMXDsBhrEWxIVLWYo5EnFmmMtVBXI0wHgsGX1ZJlb6KXJmZFhNr2NzFLu771NKZ595jFpCH5EMwaBwRttEKNkFJn8uLCRQSJNJEe/pog82DQBJhzQF65ZT1EPFyEOgu7XtU+RkY6sz4tMCZwcbnhuGmoBIi1dd9rMfaxioRxobjha4FCY18uQlG4kdjPjP3JS7isiFn+w2UcuyjW1bRjZHXHRwPHxuqFcmV/rncepN+2y7MQixknl1vs1AQO7PgG+zAfXnfuJea5r8JKz3bsX4TkeYrANbfriIXphmplaOesdg9zHrarlhc7X952rAvTbMYyypG0UheT96RdM2y0YQ+w65hVNtUoklejlm2zsGMUaVQ4D9sm74dCtMZ/R8PF3vAKAK8F74EnpbQcSTPS1rEPNx/TtKh8I/gBb2MNLWytYQ9gH/atB25yvEk8F7wYWmjKwMRmooLXnWchr4v/hkPxEAbrYSS71NXAe2H4I0Pwinp0o4EKSKOAJ8p1tHvhnfFfg97jaLHeKzDioQiMYMiCsB33L8PtqMPUQWAZdZJrhbcYeu0sJ8TJ/YoxzbLJAo7V7ZXJKGxUlFrv44ZCa1ukpaBFwYpQj0dprVYjxI38cONlefas43yIbL3erx3fysVudP6aJ4kxbetGgx2vXsyDqObx2HWohbS0WQ8reb7k8c0TC68782yXJGt5GkXzwf1h15G/VGLuH/NSmTcsrVm9RTtn1j3MvWb3BuVTDevd1uqlsk9WOZknTf7IW9gbHM19amVTa1oNuz+LXN9atk3CvpZfazCrYduPOxRuNSOhWNq6pFUjeSNzA1tlybrJi8BNR+FbwWLc7ElIY7gNlaeIaHN8647bvtwsYWU2yIdVXIx9OG/YKNoN1wxLlqOdq9r1sTQXBdFi+7DScA6WUcZJJyB5fNvWxI+yZD4tncnzkCe2SzO7RmnrMETJRAtDOMO0Wr7Ig13ftFBOSN49zPHsnuM44TE4fnIf0se2WNr9lQf7hOUEnM8azzBPwLSlLVkORam3UTHs/gzTzXSa2XUgzWnrsWSZkSe0gf2woiJt90iRhrXpWOIbZdUIhS5ptXq4XJCkeKaJYhpUBrt5zbgJzLMgLRyHbexGNuNmSKuQSdiGbW0/jmONB2kPb65GWvJGtYpQrSKxL9sVxW5+jkt5hWKQVj7J45NO2551dh3TvDuWs43BOVlWj9lxuBZZHnJYsU0c+AtWnqQ3TDf5COHYlmcsTQjD9UkrIiiICWVh9yr72T0GlKXdv6Q/eW8Ay8I8pJW/kXbfWnqL1Ik0rDw5lmHHrMcsHaQ1vI7kLe16h4225cnKA6s3Xw2FRDTSqhFeWDNuoKwKk0d4LC5IPceg4nBjWmW0mwXhsRvc0kgFqLUxAcrF0mrHH0s4P+dullBzfCoF5cUNniYGkHZ8ytTKmb+hyISwPiw7roPdc7VaVvqSUF7hPWD3F/eMLTMj38n7z8qHY2SJHyJBvpKWJ5YhbJtMh92jpNPua8o1z3lhnTklefd4Wt6xIo1KFlwTjkFeGgXpDBsfrmVW/u38SSM99WiKSECF44bOuwFrgRs0rMRcJI5fjzinUYtINBLKh3NXywdpY7t6Yd9GXYskVLSi4tVoipRdGpRFI+/PNOyaYWn3Vq3XtEg+7Xxmo80f52zG9SXvzS5/IYQQQgghhBBCCCGEEEIIIYQQQgghhBBCCCGEEEIIIYQQQgghhBBCCCGEEEIIIYQQYoLTyF8hF2PERVf9gG/cCiFKxF3XvbFpeiqhnoAg1MtW2O+PCiHGm82P3dNUoW7Er5ALIYRoIhJqIYQoORJqIYQoORJqIYQoORJqIYQoORJqIYQoORJqIYQoORJqIYQoORJqIYQoORJqIYQoORJqIYQoORJqIYQoORJqIYQoORJqIYQoORJqIYQoORLqScjJR7bHU83jrefNiUw0F8r4fa+cH89VOPPEGfFU41g4u63u63nxaR1NSdNkQj8cMAEZ7Q8HfOltR7iO6a3uW2v2uHUbuuOlxUHon3iuJ54bCes//KoF0fTf/fOu3G0nMuTz2EVT47nR8bsdvXWV0xfevNgtmTvFXXH9c9E8YnrhqR3u2Z297tqf7HY7n++PlhcFQf7cmxb7/fvcZ2/dES917q8vX+SOXjjVfe/eve7OR/bFS4txw5VHuq17+tzHv7c9XlIcBH7ujFZ33BFT3T+te77m/IwVzf7hAAn1BGQ0Qo24fOLSha7rwIC76oatI8Rmybw2t2BWWzzn3FHzp8RTfp0XBMOEIQ0Tj6e29roHnqytIahVBMYTPNmXLJ8ez42OhzYdcF/1wlorSaFGaD/66gXRsp6+wZobY/Z94bJp0bULhdoagHoEN0uo8bRXLDvUuwvvtfkdba59ynB5uvvRfe6me/bGc+VCQi1GMBqhtopowvD1v1g6okLksbur3/X0D7pb13WlCsC7Lpznzjm5/m5uXgMQgiC95dw57rHNPeMm7kU86lee3hH9/cn6/DQ2yqM2sgQ3j9edOdu95oxZkcB/8ubtI7xXO9d9T3S7b9zdGS+tTpZQZzV0nH/3vsq5ScNBP4+H/+tnD5a2dyahFiOoV6itW4swf/62ndFNT4Vm+R9298VbVVjuBWi+96yplEW7nOZ1Gey7cVtvPJfOLN+tveTFHVGaaAQ+9J1t8Zp8Pv36Re6EJVPr9kRHC3kNex5ZnLS04jE+uaW6wOzy+cdj5Hq8tKCnTkPAdSIkkQRvlYYs5Fe+vNKupYWruA63P9jlfuiveRLCEFdePK9mT72aUNcq/GVEQi1GUK9Qm5AW8bLMeyoak7RjU4nveXy/O++UmdHyvApNxX/TObMjoUGkr/GNR5EGwUQaxkuorXwaiYkZIYE3+95CM0i7njQMn7p0YXQdqt0bJq551wvRvyTuSQDbE2oLGyuumR2rnrh32ZBQixHUK9TXXbHEzZreWqhi1CLUoUibMCPC71w5N/LQ0jwmQiRnHD89Wl/0wVco7MZ4C3W1UA3bQbW4buh1JoUuDzx2rinlUIQ71u8bET6whq9oY2l5z9q+SENDuUmoiyOhnoDUI9Rh7LiRQp0m0kYo1ogQce2Tj5zqzvLLERf2efDpA4W6vaEXjUBM9cc0gaom1HiMV14836fD1TUSIo1QqCmDU4+eFq85BKIbCrVNhzz67MEo3FHvyIgwHfVg5cq1KDpCJ/TA8ZS/49Of1Wui0eHhdV7oQ0JdHY2jngRQsfBemwEPyaiEaSEO5nkohceMmBDfRNQRWLrYCEPR2KSJCcJMHHvfwYF4TXX+7MzZ0f4ML+MBZCNA7Mk3bO3sj2L8SUuStg37AsdKa0BoBBhOyTXMg+3SYD+G1iGYIbbcypXrV/RBHenEk6bB5FpyXRHdNM48sTn33WRDHvUEpFaPOvRGoZEedRYIAQ+6EAgEMgme2NY9/e7Xmw+6nz+2v6qXixCFQ7MsfUU86rArnvWgrFmEHnU92PjlrDCDlYMNtwzhGoSer60PQ0hpPaGicPz3e4G268s5fvrr/cPK19JH+hkt9MUf7xrKQxjvZl0R2JdjlA2FPsQIahFqEykq5D5fkaiczRBqKu2frJjpK+2UaDws+xpUxMf/0BONHmE0w1knzYi2IyRiUMnxkqmIDMdiBATeepaA1yLUYB5lM4Z3meAkIRwRCjXhjSTV0h+KbVr4wMoBwnHGSZEOwxMWrkourxcLqyVF38IewDqud9jgZJVbHmllUAYk1GIERYWaymrD8fAkz/Ld0FB8TUTSsBcO8rydOx/e7y7+o5muY1pr1AUOoUI9vbU3Gp7HMDEbehbCuN0Tvad/5LwpkaCEcN68oXq1CnUzQZDSxlNTxhaSIO80mkmKjJ8Or2NyVIaVA0IIhJrARDoUxhBE8rv+PrCXY+rFYuOUwYuOnjbMm7ax3MD9QKgHYbY8mFCnOQN568pIs4W6+kBQUTqOP+sNq+YsPjaey6a7Z9C9+oxZbtP2PveNuzrdRV4oENRHnjnonvYC+pZz50bzadbWWrnnZrSnr8d4EHa8F1oEJBJmf8w1j+53X/qXXe6uR/a7BzcecCcsaXev+KMOd8Cn5d+fGO65Pf77nmjZvz68z9372263Y29/5OU93z3g/uWhfe73u0bGeQ3Ly5bOPvfAhmIjHhoFgvsqX670DLATl7a7xXPaRhjrKD+M6bRt2NeOg82Z0RaVYwjXcZsvmz8+YbrbvW8gChUZVg4P+2u6bMFUt+IF7e4i7y3niTRQZhwXMRzwGk9vxozjIfw7/H7h8tDYBn70y67o705/Lq6nQePyhrPnROI8d2ZbtM81P9zpzve9rqMWTHGt/v6aO7M1aqTtfgyhLLLWlZG9O55xT69bfXU823DkUY8Dvl5c4G2zv9U3xItqopbQB91Se2HFvK9mhD6ysG5xoz3f8fSo6+myFyUvP3it5n0jhDwYfZH3WGkoP3LTNrfqskVDAkrDGcaDi2KhsmohBsI4NKrJuLhh3jQ9Od52tOPZSKDV9z/vzltBCCz9+yHyqIcjoR4HvEiv8vYpP3mTt2tqFex6hudBs4Q6fFg3GqqJQ8h4CnVRLBbc6G9UcFwb4mgQggivQ70CZ6+R/2bzwdyHdnnDCRFjRoKYkGdta9eQRiYtNCOhPsShKy3GFH9FvR/k3u4nHxvw9723EytrJh57uhnB0ZdqFjtNWxfa4cjyxZUHmOsaFJpBoHlpyYY4MuyR8IaBoPFyEVx29uxIMGuFZwawZ3/x4Y9JzveeMjxQ5SElzzagVq9/MpLZAvjqdbr/g1VjvT/Ieib8Pkv9n0uYzsNvt8VfojviWedvicv8MWbFs3ms9ttFQbGJnD6/7rV+u0vj2Qi/DLUq5GGXzaPOwp7653WRwbZDsCeSR92ongTk5SPpQVNOdz+yP7ouVg7hCy/hSyy8zl+LN29vr15/Z2fmaBDzmLOuF9fzHSvnDq1L86gJ3fztW4/IfGgsj3o4ww7sBelsvyAKvnnheJWf/nC0Ip+r/XarmPD7XOD/rGE6D7/dWn/LrYxnOe9Gf4zl8Wwex/ntNjHhj8E5P8N0FcqevmH4/aoK9kQRahOMamJqglfkGyRGrUKNeEAjh+eF6X4g+JwrD8LIN2UXwrYIU/glPb6znBXDzxNoI02oIRw7X7SMLD/VGlbbLq9hRYjNU04TaguxZF1zCfVwKnfAIb7vDSHDJmxXfCLjr7SFRH7sRbtI41BKEBnz6hgGVoS93c3pAiMseOwY042GdCMmZpaPcBkGDHUMl6V9XRCPNQxxIJw8lEPo7DjVQPwQQUDweLsxL+8Iq32StVrIwug64O/QDKqFM3gICrzwJKqTFGoxzvhbHy/6Ci/Wp5l3PtFApBEZuOM/sl9aMfixgmYSfpw+nC4rT23tiUZy0MjxIBLvtp63KRFr9uc4DNfDC8aTTYNvodiQvmqhEnoBUG/DSu/GGvGxfEt0IpMp1F4kbvPWUsCisAL46bWJdanmTzoUVgA/T8ggdduEDQmXn16VWJdlpUufXz1ivGUg0Cu83eit6U/Y8LDoYqaZPeihG5+2HjFOQgXklWcTaUSiSEW0DxrxcfiiMIabLn3ye8tp4NHz4A0r6t2PJzRsDF/j5ZVqoknYIw/255sqhB4Q4XAMNnDN8LZNOG++L/96sb19N6aW6xVy+TmVe0fedHEQjSESsVhE48Z4WjQQL8pD8WsE2pfzNX7ypqLi3KgYNYJLt7gewpgjlZfKZ6+FR131X3aN6KZzfqDLbN6Y/UBBtbhoGbFYbTIGbOWajBtbrJavCPI7gGDx7CJxZBpHXgLhFXuwV/UR2Hd/c0u0LA+uU9Y4bMo/+Tq53S+k2bCGIeshYBphjLrar8gYVoaKUVeo3C2HaM4ofjGC8fCgk/BtYipCPYbYAC+0EPsNH1ytWr0js3JR0dmWSoiZSCMSk4WzT5oeCTxm5ca1qMa+g4PRSyRWdiaajOwoQvgglVfMOQYiTSyba5Yc5WExaM5jBmzPG4/1YMP/ioTExCGGtQD+slSuTAV51E3CFzK9ls31inO9HrX97FbW7x3WA8fjC2qbfTe42k928ZDMPEmj3t8KLAN4qHzgv9bfbbT9jLSP+aeR3I/X8tf+Zn9d5We9IEarNNtjxTsOv/VC417t87b0VnieULRsxpsxHZ4noZ4Y1CvUQojmoDcThRBikiOhFkKIkjNMqAedWxtY9cfIQgghms4wofYzKwMb+taFEEKI8WOYUAshhCgfEmohhCg5w4SaNxMDOzteLIQQYhwZJtQtzi0PTG8pCiFECVDoQwghSo6EWgghSo6EWgghSo6EWgghSo6EWgghSo6EWgghSo6EWgghSo6EWgghSk5SqI8L7H4WCCGEGF+a9osEonnwCy/xpBCiJIzZT3EJIcaWC9/7gy+3tLjT49lUWgZb/vHOv79cP4s3iRkSau+izfN/PlCZi+CXsTfF00KIJuB7R2umTuu4YMacRfGS4XTt3Oz6B/qvvvu6N66KF4lJSBijRqg/Exi/lC2EaDJTp89ycxYdk2otbVPjrcRkRqM+hBCi5EiohRCi5EiohRCi5EiohRCi5EiohRCi5EiohRCi5EiohRCi5EiohRCi5IRC3ent6sD0VqIQQpSAIaFu8ULtbVVgEmohhCgBCn0IIUTJGRJqPsrk7YLApserhBBCjCOhR82nFtcEttSbEEKIcUahDyGEKDkSaiGEKDkSaiGEKDkt8V8eJl7g/xCbNo7TED0hGscr3rv6lP6Wvo/FsxG+jl0yc+7SpQuOOjleMpznNvzC9fV0r/cbro8XQVdff+snfva1y7vieXGYI6EWYgy56KqbP+Cr3ZfbprS7aR3zo2XTZs5xHfPSn93v2brR9ff3+qlB171nuxtscQf9zEV3ffXye6MNxKRAoQ8hxpC7rnvTV7zofrC/r8e1T+9weNJZIg1zlxzn5h91knMDAxLpSYyEWogxxsS6c+vTrmvX7+Ol6Qz6/3Zvftzt79opkZ7ESKiFGAeKiLVEWhihUHcOOrfWzM8fqCwWQjSDPLGWSIuQoYeJQojxwR4wzltyvJu14AUSaTGCtvivEGKceHrd6vuPP+uyPQf2dV7S0tbm9u38g0RaDEMetRAlwTxr19IikRbpDDh3treNZvFiIcQYctF7f/Dei953y7nxrBARmS+8+BXytkvKRVf9wF8uIUSZuOu6NzZNMyXUExCEetmK8+I5IcR4s/mxe5oq1BpHLYQQJUdCLYQQJUdCLYQQJUdCLYQQJUdCLYQQJUdCLYQQJUdCLYQQJScU6vu9HReYEEKIEjAk1C3OHfC2ySxeLIQQYpxR6EMIIUrOkFAPOne6t1Vm8WIhhBDjTOhRn+7tM4EJIYQoAQp9CCFEyZFQCyFEyZFQCyFEyZFQi6awcLZ+jlOIRiGhnoS875Xz3bsunNdUMf3oqxe4665Y4k4+sj1ecnhy5okz3BfevNi99bw58ZJ8brjyyMgaRdrxSEuRa8s2pL8o5JNzXXxaR7xkbCA/3LOTGQn1JORFy6a5c06e4RbOql6ZqZRmVBbs069fFK9Nh0Zgydwpbt/BAffEcz3x0sOTuTNao7wuKFCWYwHX58JTO9yqyxblijAi/bk3LXbvXDk3VdRpYL/+F0ujBrcewvuliFlDx3nZN0zTqUdPcy9ZPj2em5wM/XTMoHNv939uqMzpp7jKzGh+iosKQUV+dmev+6tbdkSiO2v6oUvdMa3Vz1dvvz9/285UEaaiffhVC1z7lBa3u6vf9fT7O6sGPv697fHUxABRefO5c9xDmw64r/5kd7w0G/N+r7j+uejvaEkeD4G78uL57oQlU11P36C75/H97qZ79kbrkiDCL/SN9tY9fSPK3e6TMF941DRK37t3r7vzkX3RsiwQ31rE1dJg+4XnsPM2qsyagX6KSzQUvBN4aNPB6O+CjopHaGYiTSUHxPY3mw9GFRa7/cGuqBLt9MuTIBJ/edG8SKShqEjP72gbOn8WHJtK/KW3HTHU3Se0QkNzuIdXamHn8/3us7fucPc90R1dB8Q2y7P+4o93RdeXcqdsQ6xM73/yQPS3VhB3hBVDhDGbx7iXgHuJ+YnWQI81Qy2Ar1K88HJpZS5aobcTS0q9HjUV9sqL57muAwPuqhu2Di2j+570kGrxngAh/dSlC938WW3R8RH8p7b2RqKRh3lucPej+1K9v/DYQKUHBB4xolG54z/2uR+uez5a3mwQsWMXTY2mjztiahRGIq8PPNkdLfuVF6G/fesR0XStFC1vI89Dp2wJyeR5+nZPwPV3drp1G7qj8rb0W1mDlXdWT+nWdV3R/km4lyAU4zTPGeRRpzPkUfszrEeczeLF4jDiFX9UEcQHgspExapFGNIIhRTBohHgL93vv758UbQ+CcvwhquJNNBF59gIBCEXKjz2yZu3R+dBPC558fC4ZjO55PRKuANDpIG82rKXeqGxHkjSjLR12O929Ebr7blANTPS1m3t7HePbe4ZtixZRlx/ekyU41NbK6GsV/r8AeUtykHTWgDRPOrxqPECP+HFFIp4bUU96qRIhx40QoyA4WHf/suuoePg6Z3lPTm8btZ9xwt0micGYbqz4uKEQDgW3f1v3N0ZLx0Ox5nnPcKs89QCgrdiWSU0MGdGW5RHPM8/7K54n3es35f5ELVojNq2azRFrr2VZ7K8i94TYY8DTPh/4svFOOukGVG5cc02bqs0TjRSNILyqEcy5FH7jsxybxdgA86dHS8WhwnvWDk3nmosVMI0kQbm8RKp9HiaeNeIAF40y/DkVq3ekSueiCtijneXJX7PxF7o9Pb0eoKwIvZX+i7+686cHS+tHwSEcAJm4Q5E2pZlpbMWkp52miVJ2yZp5rFnQSPKteF61puPsMeBcX9g4TJEGuiR2DL2E+mEDxMZ9bEmtu+zQBweIE54JM2AcAXeT1YsmodRjDCBoxdOjUQAEI0feS+bh195IOKEUj70nW3xkpFUC3kQRzaOXticcmg0JvpZdqBnZIx4l2/M0rYNDfFFjPFSQzOeeK43ul633JcehioC4ZawcQAa23CZxb5pEGwZ+4l0hlwQf9mJS0dfzfPTm3x10q+8NAjfQ/myL+g9fvIr/m9637wGagl9IGKMqUUgeehGPLdI99e6m0W2TYIHe/ryae4Y3/01YebcG7b0ROkJGw085ec6+yIjpsqDuGriHZL2MCwJ52TIGlx/5+6ajl8N8oo3iNAghEYofiGW9/AhnVF05AOhBYZAPruzb8gzRfBohIjbV8ufPbALIayQDFkksd5TGK5IgsceeuJ2feg9McrE0MPE2pBQjwFeqG/wBf12X66d/u+1ftGoBLsWobY4MV4SIh2KLyKTRZFKiajy4GzJvDZ35LwpkbGPgTgjJr/2lTQckYEgXPDCme6Uo9qHbR+CB0ZYJE90wvg4wjceQ7xMqBHKTdt7orzd81i3u/C0mUNj0skLL/+k0d7WEqWfbWwkTjUIIdE7IYYcxu+ZTgpiNUIRTBPwWkk2WJbWIoKchYRaQj0mmFDHs5TvqAS7qFAjZAyzQjDxtBg9EQr1aB9Y/egXXe6VL+mIGgDDHqrRjbXGACGzF2ySkMY/WTHTnegbE6ZtCFiywicJRdry10hPuQh4i+evmBG9NBJi5ZvlTYbwFidx2qICm9w+fDhpL7AUET8jFME0j/o1L5sVNTYc0+B6QrjMCD1qG3qZ1ogWFWquM29Qck9IqD1eTO7yMxcy7YWEwBI/dpvG33gRv4MJv88l/s/HmM7DH/dfvX0hnmU/4uBV8edZGU+Spo97+9N4No8ypu8Uf/yl8fQQfvu6BLsWj5oXRHjaTmWwSmmVg8qSxUlL26MKiqe4tztdABnd8KKjp3nPsSWKbaaFHYiPv+aMWVWFN4TKWdSTRqS/tWZPQ0ZzFIVys/IxCOHQw1i34cCwrj8PTxGZd39zS7xkOFkjLNIw4Q97G6FQm6hB0YarmreaNkolbVkSE+ms65Mn1Ly6Hjb+MF49pqKMpVA/5Gd46aUaV/jtbmTCC82w186z8Nvd6G/pK+JZ5v2/6vjzhOkb5pXmUPb0jcCfrCbBrjVGbRU2KdR51LItnljWE/uj5lfeODRPOw8ehmWNpTYQq7fFIxMQx3+4q7OqwDUa81zpJTzfPRBNZzVEJkhp48RNzGgMq70YFHqW4TVJiqY1jJTNNV78q4l1EaHmWOHD3DSh5h4IrwN5O++UmZmNKD0thjhyzZONPOVLfo2uA4MNf7bQaMZseJ4YV6il/PJ7VzTXQMbi5qa7jBilGSIA/E1bH5q93p4FlZ+PCCHSCD9CNNYiDYxW+chN26JQzvr4VfwsvutFFa8S0QrFh2mWsa7aCAu2pQeBSBPyyGs4eRbANvQ23p/TYyoCjSIU+RQADTWesO1Do4RXn9XTIQ80bDRUrz9zVry0AiEdvGczGrEyi/RYEHqEt/uZVzPtLwuCsZrpJH6bb3m7l2m/3bne3hmtyOf/+Bbhf8bTkfcZT+YSerl+n//u//xflblsSpq+c32aToynh/Bp2+CXX+Mnb/J/893NgFo86pBmedQICQ8V07js7NlDXmAexD3zurfmfUIRD3SsyBr1EWJedZhuK9+8l3TARDrrgWlWGIKQF/vg9V/r05UldHketT0ITPYG0s6ZFh/P62kZlAuhnCe35De49syjrOhh4mEAwu8LOnyYWJdAG2UT6ixMXLMeJBomdllCbd15qCZsY00RoQYTTkRv+eL2oZE4eeUSinRWKCNLqNnXhmXmhYiyhDp8qzQ5+ibtnGnHsbJpBLU84xgPxjL0sckLyFrMT2c9SBSjAIH2f4ihr/B2Yz0iPVFAKHhNHBiuVoS0GDbH4TseQGWtR6Q5BsKDMT0e3Hzf81GYg4YLAUQ88XSzIIRATDpPpPNgW17N55wcg3HXRd7KRFwRXdLIvhwjeV7SA3jR9Bb4i0jbcoOHqzT0eQbsl7YuNB5cT2aGhBrh8DMrY/tv8WLRGJ7yNikEGhBDPEG8ObzG0XRZ3+I9MhsBQDcZby7LEI00/swLFMKDMT1e7PPeqbFr30Cm8NITYXQH+a5HpA3iwzzM4xgci14JompwHoZDAg0D143heCa6WQ8C7/ltdyTihDq4JvxlnsYohDRz7fMMiIGnrQttPJ5FlInQoxZNwhfyZyeDQAMVPuyu53mNBm8xQtpr0YwaGS3bA5ELp8cC8+YRXsqEODWiRqPB0Dw82CxGI9IGQssxCCsRxvj2Wl6QHR7zJz08pD1hSXvkQROeYZRH1oNAHlgy3JA3QfF2+ct81vZi9FRcFTGhaFSM2h5y1UMynsyDo9d6bwzvCljP0/tQZEyUwpci6I4T2sDjKzKWuF5sNEIjxIS88sMJ5M1eQEnGUNnm8nPmRK91kzdE0r4giHgzIoMHdYAgEyZgvLuVF0IazmdBTwKSMeY0bAhdKNKI7AsWTBl6BkAPaPPOvsy3Uauxp3sg+r65fV2wGkUfJhplfag4luOoP+D/vL8y5+5X+KO8NEqoqbDVhsRlgYAgxIivfbIS8M4efDo9lmwvd6RR9M28MpD2kIxfvsHTZB2vj1POQHnwCj3D9JKiSyP18hfNHFYmed/lTqMWoTZMqMNzJdNdL5QDjVO9DkA1yvpQcbxGfaz1t87QW3eiXIzFqI+imGjlCZKRfJEBeJmBb2TUIk7jDZ5p+NlY+8QpsI4Hd1CtPAyEkwevfA8ka3hiFvUINXDOtDIn/WeeOL3uH+st88iMZiKhFiOoV6jp/tMtrfULddXguIpPHsJCDGMBDSWUMRwwmRjL4XniMAcxpUI3UqRBIj2csRyhwPWUSB/+SKiFEKLkSKiFEKLkSKiFEKLkSKiFEKLkSKiFEKLkSKiFEKLkhEL9FW982vS4Fr2VKIQQpWFIqL0483NQm2JL/4E3IYQQY45CH0IIUXKGhHrQuUt5jTy2S+PFQgghxplQqF/r//Ctj8/E00IIIUqAQh9CCFFyJNRCCFFyJNRCCFFyJNRCCFFyJNRClID+vh7X33sg1wYGGvsdcTFxaIn/8puJN/iZtzM96NyNXsGviFaI0sEvvMSTQoiSMFY/biuhFmKc8I3vmukd8y+YvXBZvGQ4u/7wW9fX13P13de9kZ/ME5MMhT6EKAmtU9rdtI55qeZaVFUnM0NX33vTP/J/rsbiaSGEECUgFOrbvK2K7bZ4sRBCiHFG/SkhhCg5Q0I96Nzp3i6I7ZR4sRBCiHEmFOov+z9rMD/9sWihEEKIcUehDyGEKDkSaiGEKDkSaiGEKDkSaiGEKDkSaiGEKDkSaiGEKDkSaiGEKDkSaiGEKDmhUK8fdG4t1uLcb+NlQgghxpkhofYTH/S2EvNC/YV4sRBCiHEm9KiFEEKUEO88CyHGkle8d/Up/a7/f/nJWZUlviK2uKUz5y6ZvuCok+Mlw3luwy9cf09356Br6YwX+co7+HjvQOsbfva1y7viReIwZUioB5y7x/+x3wG61rvaX4mnhRAN5qL33XKur3w/bW2bOnXO4mO9ULe4tvYZbtqMOfEWw9n//A5fSb289/a6vds3uZbW1m0Hewde7EV6S7yJOIwJQx/L/I2zPLZ58TIhRBO466uX3zvo3MsHvPIe7NrtZsw9IlOkYebsRW5ax3y3b+8WifQkRDFqIcYJE+vurp29uzc/7gb52HAG/X09bvszD7uB3h6J9CREQi3EOFJErCXSQkItxDiTJ9YSaQESaiFKQJpYS6SFIaEWoiSEYr1r82MSaTGEhFqIEmFifaBrV69EWhgSaiFKRiTWgwN/IpEWIxhwbqNvyQdjWxUvFkIIMc6EbybywsuUeLbTTw+9qiqEEEIIIYQQQggxMQlDHx8IvvFxm59eH08LIYQYR0Kh3uhnlsezV/jpG+NpUTIuuuoHg/GkEKIk3HXdG4f0tNFIqCcgCPWyFefFc0KI8WbzY/c0Vag1jloIIUqOhFoIIUqOhFoIIUqOhFoIIUqOhFoIIUqOhFoIIUqOhFoIIUpOKNTXers6Nr2VKIQQJWFIqP3EV1qcWxWbhFoIIUqCQh9CCFFyhoR60LkLAlsaLxZCCDHOhB71msAuYYEQQojxR6EPIYQoORJqIYQoORJqIYQoORJq0RTOPHGGO/nI9nhOiGx0n1RHQj0J+evLF0XWrAqycHabe9t5c9wnLl04qSrhF9682N1w5ZHxXIVk/t/3yvnRNu+60H71Lh/b/uLTOuIl4wv5IS2hve7M2e6t/nrnwXbXXbEk+hvCPPfJR1+9IF4i0hj6RYLB6N8Q+oWXEjOaX3hBRP/2rUe4nr5B98mbt7udz/fHaypQEY9dNDWec27FskNCc9T8KdHfjmmt7qobtkbTaVDpXrhsmvvN5oPuiz/eFS89vEBgLjt7trvn8f3upnv2RssQ6iVzp7grrn8umqdXceXF89xDmw64r/5kd7SMBvLohVPd9+7d6+58ZF+0LA+E+iXLpw/bHlE89ehp0XQtPPrswaG0Amlpn1KRAK7prOn1+23cT+/+5pZ4bjjcc6suWxQd//o7O926Dd3xmgpfetsRbv6sNnf7g13uh+uej5dOLJr9Cy8S6gnIaIQaT+6ck2e4p7b2us/euiPycuqpoGkVDhCwN5+b713lYSKXBZX+pV644FdeAJMNzVhh4oPQfWvNnqgsQqFm/efetDja1tYD5c0+WaKWJE2obdnurn7X0x9W23Ta21oiIQwbDLD0Glv39MVT2fxhd/o2z+7syxRZa7if3dnr7nls5D1z3BFT3RnHT3cPPn3AbdzWGy8dye929LonnuuJ58qFhFqMYDRCbcJsQmuVNVlJzcNC0H/tPeOu7oFoeZ444kG+c+XcIS8Nj/qg97Sq8SJfidknzyvD03+HP3YoLED6rr9z97gItjVKCNBf3bJjmFDb9N2P7hvyYs3Dtu2LkCfURb1yS2dSqKtBo76/Z2CYF56EY7/y9A73D3d1pooo3v+FpzYmbFNr+seSMRNqXw150cX4G+9j3RFPi5JRr1ATS3zNGbMiUf7497bHS9MxoSkqBqFII54nLJkaeXzX3LYzU0TxOq+8eH60LSIdep4hiPSHX7UgOnbXgQH35JaKIJy0tD1qTKqdp5lQpj9/bH907lCoKY8XLJgyzMs0gaX8szzTxzb3RJ7jJV78gHATx6RM93Yfyl8jhNrKf9P2nhFibGUOf/fPu1JFOLwuaWGu5D3xwJMjry2QNq7hT9bn50UetZhQ1CvUJiRFYoG1CHVYIc2DNE8KYf2On08KMPu86ZzZUZc8axvj069fFIl50hNFaD516cLoGAgBoZyxgLS//sxZ8dwh5ne0RWWQ7J1YbLhImAkxRazzwkdsg1Df90R3bqjAILRAuCtNqAnPkOa062xhMkT0Q9/ZFi+tUK3sw3sCRivUZRZpkFCLEdQj1GHsuIj4FhVqjstDtVCkjbDbi0h81x9roa/Yl58zJxJeQHyv9eKR53Xz8BM+773mZGW1XgJin/eAk7TMbG9137i7M15SP2FZFoG8E8MlnWmiFnriSfJCH7WSFGpAUAnHZPVoLG3Jfa3xTOvNJO+JRoQ+0tJeJpot1G3xXzGBOP6sN6yas/jYeK4YH/yvlS4qPPLMQfd0FU/sIl/Z8P6qbbtozhT30uOmu7W/OTT6wXjY77v/4GDk0TGS5D9774xKuyD2ou/4j33u+n/rdN092XFsRkiQjr7+Qbf6gZG9gKMXTHWnHVMZAfHPv+qK/iaxBoNjIToPbjwQr6kPyuNHv+wasuc6+92KF7QPlS+i+o8/3+O+/3/2Rusf2HDAvf38uVE+9h0ccGt+vT/aznjLuXOjv2yb5KyTZrgj500Zdh1sGR41D+dYZ7Zxe28UVyYUcf8TB6JllDV539LZF6Ul5Pe7+qIyWb54qjvRC+8vfdmE1+OZHX3uvFNmRg2slS8PB//TUe2ZISfuibN9Gq3hvvSPZ0cN1B3eYw7Tasb141g/XNeVuh7jQeNOv01Z2bvjGff0utV8y78pRP2wAeeWedsY2NnRWnFYgAdWrctdL3hgDPNLijQQw0Ske+MHimEatu7pdx3TWiKPOQ88aDyprIdv562YEf3FYx0P8Ojp4gOCCHjbhAXwVoGGAjEEE3PD8l9kxEUSwh542aHx0Bdvm8bQltGLwFvP8khZz/mn+rSdsGT4uG/Kn4aHawyk98Sl7ZEHzgPEtJ4Q9wS9n7R7QtRHdNf4arTc/9nIdMxKv2JtPC1KRi2hj+SDOMSykaGPECoxQ+cYe73ce9DELw1CHA9tOug9uylDDwENvKld+waih2UILmKTF5Oka00DgCfGcbI8uxDEEholHuT1HRfMjYad2fnxNCkzngFc8uJKd59x1ox5ZrmVfxjisDBKVow9L/SRdm3seLWGCqzBSJahvcATptkaoKxnCkmSLwHVw2QPfUioJyC1CLW9TMCNbiMIrIJT4bMwMUVAwtEGIXS9edg0Z0abW9DROkyYAXHe7IV3u6/8dLHDik1lP997w3Thk/sBHlvaCznJ+DDbrb7/+cKNSSPAi0aIafzCGHsYa7aHaUDs9/Rjp7m5M1sjYQ/HoNsDO8oyLX5uokwYgRg7YQ28ZZbRQCTHUduYaRoFwixJki+9VCNNqGuFY+hh4uiQUI8xvqyX+rIt9rZDBkWFGi+JB3FUAp7aJ73k0Xo6HOc1L5sVCTqCuXtffzTsjFELJpzVPEYgnX+yYmbkbS/y07Omtbp7ftudOjLFBJ7x2dbwwFi+BUmeeFhG3NTEFfFe7NM+vb1lyPOzHoaVhcXKQ1G2NxXTXiAir4wusTyCjU0fjVCb0DeDNM+X+yzPI2Z9kSGjZUZCfZjhy3qVt9f68r3a223x4pqoxaPm6fwt9+2NvJGkUCM4WfASAxU+bwgYL7/wkAmyvB0Tp2Z1Xe34MF6vIFsa8hojSDac8PW/qPyY0ruDF33wsnlTL4xnI2SILF7nW3zDN5rQB+mt9gp62ivlWeIfkuaxj9YhMMos5hLqwwyE2v/5TDy93pdzzYJdz/A8qCXuXMu25vmlYRW+SCUnfFCPV2xeaXKcdbNADMNvoFiYKO1NzF1elEPhslAUD9vOPHF6qsBbuIP8INbJ62Dr07zwIkJdDRoUe/3dGgt6TNiq1TtynwWkYR5z2ks+9KBgR4FjJsuyTDRbqJszFEAUwl/V0/2fH3r5eshX70srSycec2e0RmKSZuaV8TdtfWgIRBospzHIwip56IE2E0QaoTSzPBJ/DpdjSc+VXggwltzWJWO39z95wH3kpm1Ro5MmbvZxrKe29kTCHBoPWYHnBsl1WeUbwjaMWKEsif0bTJNP1hU5TgiNzLfX7IkajqRxHixtXdLKKtJjQXRnp3jU/+jtzyuTueAN4iFyjAv8n/A19FT8dmv9bb0ynmVo4EZ/DM5fjeP8dpuY8McY8kqrUPb0DcPvV8jDLptHnQUV2jyzsGufhO0ICaR1bfPejjPCj/6MhUdtMKKGT3SmpQ1hxLNNxs6tTKxRoaeR96JO2ggPvHKG0t3+y67oHEWpdi3tAShpszHQFrbgYaKFeMjvzfc9nzvqI+9BdQi9EbDPAlQDwS4j8qgnEf4qhx52kcah1BBLpdJXG+NsX8Oja52EF2mAcAHilwSxZFwvjPWoAD4SBeYlG4gxD1nJz7fX7omXViBswEeujJ8mXn6pBsemLHhwaxA6QYSzjPXVoEFMinQSlrGO87Mt+2SR7FlkGV46lrYuzSYrEuqS4aXqNi/YfL0w8s4nKnhnfBUPeJhZhLQ4JeKLVwqMtMCrMxhpcdUl8yNxwcvL6hoj5nxnA2O6ESCYhCUQY7xMeiAWXiA8gPgwhjotnmuhC+BtwFrgIS8w7NFg+CSecpZlDa8EyoO002uBLJE2TKyBfSjT8JoYeOBZRvwcuGb0KMyAdWn7mE1WIlfdiwN3zjKmwc8f4Ve8MJ7Ng676eib8Pjy+voTpPPx2W3zrMPRlPn95LvPHSH8SNZzVfrvoHVZ/DDxPrBqlS59fx4iPEfFovxyBJuwRpTePsoc+wi50kYdaCC7fwcjb1r4tkQYhE8ILWQ+5LHwAo3nIlgbCTM8h/FQrf7NGgFg+ECaLbeeJYzL0EQ7n49lAkQeHaeETBDr85kpWOCMMfYRwje2jWkC+N2zpces3Hcy8X2jIbDSRjT8nbAVcv/f7dJI3yoawTq333XgyJqM+xNjhBXlY/LoWgTYaJdRU1vDXXEKqDc/b0z2QGqMMh5ZVG65mmHhV8+ao6KcvnxaJIyDMecJgWMMBWZ9SHS1hYwCIzQP+PAynswbE8omokY6Tj5w6NLQwS2xDkeWljzAmbnFwyjnrZRLg2yCc1667NYwGPRZCNGkNXZZQG8mhhGnXkHReeNrM6N4j73zjxYZRck+CPZsIj0c+CSuFZVhWJNSHGSbU9Qi00SihTopLLSQf/NH9JdZsHlaa8HA+YJjV1s5KxUN4eRBIBU57E7HM0NDx3Wgbnoc4E3MmnEGegHLgq4H2SVATaWss7AEdUKaMjgBrQPmWCV4m18ymTQxNqIti193CM7wsc+u6rtyGq5pQA8ejYectU3twStlc8MKZQ6/5k29i85RFeI2TQg0cz17PN/DACYM98VxvUxra0TJW46h5KvABpmO+4leM/nuQYgQDzl3iy3ZLPQJtNEqoqejheOBasDGtCM1Z3mO1bjxik1X5bQxxGtW86TKRbJQQaEYthA0TQvXal81yG7y3a6+bs13ad7dDsUaQ+CJeKMAm7ldePC86ho0SqdejBsSwSKNYRKiT4BVbzNvKJinQRppQG6SRsFL4bZiy3idjJdTJ4XlDQ81E+RiLGHVRECQ++oRAIzB5x0WQeH05BMFft+HAmI/YGA0mkObl5QlH6L3mxdEt5svHnXjb037hBfg8KOeh/OiJWBmzDy8aVft+B/sxZrua95xGPUIN9J7yfkfRyBPqEHtFP+17KGVAQi1GUK9Qi/GhqPcqJi7NFupKf0II0TQk0mK0SKiFEKLkSKiFEKLkSKiFEKLkSKiFEKLkSKiFEKLkSKiFEKLkmFAzivzqwPRWohBClIRIqFu8MHtbFZiEWgghSoJCH0IIUXIioeajTN4uCGzy/pSCEEKUDPOo+cg9vydoVvkNeyGEEOOOQh9CCFFyJNRCCFFyJNRCCFFysoR6+O/fCyGEGDdShbrFuS3xpBBCiHHGa3I0PO8C/4fRHhF+YbRclBN+4SWeFEKUhGb+wktEPHZ60CxeLIQQogToYaIQQpQcE+pO70avNYuXCSGEEEIIIaqhh4ZCjCPnv+eWpdOn9ud+W+eAm975s2tfpy9aTmIUoxZiHJnaNvj9/oHWjXk2ZaDnA/HmYpISCfWAc5d522gWrRFCjAnTO+a7xceclmptU9rjrcRkJhLqFudmeVtuFq0RQowJrV6Mp3XMSzXXok6vUOhDCCFKj4RaCCFKjoRaCCFKjoRaCCFKjoRaCCFKjoRaCCFKjoRaCCFKjoRaCCFKjgn1am/HBSaEEKIkRELd4lyXt01m0RohhBClQKEPIYQoOZFQD1Z+imsVNuCcvtQlhBAlwjxqftz2M7G9nwVCCCHKgUIfQghRciTUQghRciTUQghRclr4Hw8R/R/i00xv8uqtsdRCNJhXvHf1KQMtfWt8tVsaL4qYOXeJW3DUyfHccJ7b8AvX33sgnqsw6AYf7+tvXfmzr12+JV4kDnPkUQsxRvzb31/2uP/zupaWlt7W1jY3b8mJkUB3zB+m28OYu+S4aJu5i4/zXlWL8/ttk0hPPiTUQowhd133pvt9r/Xlg4MDvd17t7npsxe5aTPmxGtHMpP1HfPdvr1bXEtr67aDvQMvlkhPPiTUQowxd3318nsR654Dz/fufOZRNzDQH68ZSX9fj9v+zMNuoLdHIj2JkVALMQ4UEWuJtDDsYSIvvGBMd3r1/grTQojmctH7bjnXV8Kftk+fPXXhMacSg46WS6RFSCTUQojxIynWg967lkiLEAm1ECUgFOv+gV6JtBhGJNSDzi33fzDo9AvXx9NCiDHCxLqlpXW3RFqMwAs1X84bxAacWxMvFkKMMRdddfPZ57/nluyB1WJSYh51+Gbi2lbnVjItyslFV/3AXyYhRJm467o3RnraDCTUExCEetmK8+I5IcR4s/mxe5oq1BpHLYQQJUdCLYQQJUdCLYQQJUdCLYQQJUdCLYQQJUdCLYQQJceEehPD8jA/rbcShRCiRERC3eLcjX5iZWwfjNYIIYQoBeZRCyGEKCkSaiGEKDmRUA8490VvG2P7frRGCCFEKTCPelGLc8sxP60vdwkhRIlQ6EMIIUqOhFoIIUqOhFoIIUqOhFo0hTNPnOFOPrI9nhNCjAYJ9STkry9fFFmzhHTh7Db3tvPmuE9cunBSifUX3rzY3XDlkfFchWT+3/fK+dE277pwXrwkH9v+4tM64iWNh3vhuiuWVD2HpYW/YmyJfpFgwLkb/MTbmdYvvJSf0fzCCyL6t289wvX0DbpP3rzd7Xy+P15TAWE5dtHUeM65FcsOCc1R86dEfzumtbqrbtgaTafx0VcvcC9cNs39ZvNB98Uf74qXHl4gapedPdvd8/h+d9M9e6NlCPWSuVPcFdc/F83Tq7jy4nnuoU0H3Fd/sjtahigevXCq+969e92dj+yLluWBKL5k+fRh27/VN4KnHj0tmq6FR589OJTWEER61vRW9/nbdronnuuJl47E0hLmJ43kPZTkdzt63SWnd0THqoWiZTYeNPsXXiTUE5DRCDWe3Dknz3BPbe11n711x1AlrZXr7+x06zZ0x3OHQMDefO6ceK52TOSKYIJAxc8TmGZAg7fqskWufUqL+9aaPVFZhELN+s+9aXG0ra0Hypt93v3NYj8wnibUtmx3V7/r6fc1tgrtbS1u/qy2VIGlDOn5dB0YyG18oahQ23ZZsD+k5YHyw4nYve+QA4FjwD06mYVaoY9JxmnHVDyxf3u4csPvO+ibac/WPX3DjIoLCPrtD3ZFlQT7yE3bIiFKE2k8SLxMA4+aSlnNqJhgf4uAEF51yfyoUcA7G2voidz+y65IdF/10pHnp1fBOjxuKyvKB8GhfBvBT9bvcx//3vaqxnZZnHliRVC37hnesxoNj23uGbq23D9Anm0Z641kHgCRDpc9uWVsG+EyErUAvnos8n9mMe054BcWa+7FuFCvR/26M2e715wxK6o0VimyMO+wqBeDCL1z5dxInKicJyyZGnlL1/judDK8YiC2V148P9oWkQ49z2pYeAWo/HkeXjOhTH/+2P4oj6FHTXm8YMEU98N1z8dbHvI0Kf8/7E4Xa0TMQgNAuIljUqZ7uw+VI8cpem2sl5NWTp9+/aKo/J/d2et2pFwn0pP05Gsp76xz27GSeSAGnrw/s7YtE2PiUfuj7/C2KTaJ9GHKWbH39MCGStezUYQiffej+6KQCn/pbhMeYH0Sln3Kd7kRCbz3WkQacTSRHg9IO6KMUaY0GkzP72iL1jP9+jNnReuYJqYMJy2txPsRXoQnzXgmQDjH5tkWKCdbZhx3xNRICKsZ22Vx9MLK8Ymb2/FDC59RNINkHoBQTbhszoxKuU5mmtYCiOZRj0fNDW+x4yKeCQJTxKPmuIQ7TKTDh1UI1IWnViofHtV3/bEWevG+/Jw5kfAAnty13tPK8rqThLHffV7gs2KvSUjLzPZW9427O+Ml9ROWZRFI37M7+6LejD0bCLGyTovPp3mTtqxWkuVkPSx6Ppu8Fx+yyJcz4h3uE3rUd6zfV+i5gJVV8tz15GHSe9SDzr3d26rYLo3WiMOK17zMIluNZU93JZadFGlgnsqFx0ylxLvmwZV50cS+/+qWHYVFGiz2u/r+5ws9SANrMHiIWnRYXB6IBaJqxoNVi+kDebZYPoZAWW+mveLADsO85lq574nu6FyhUaaIItfDlrFdGi+KeyW/ikU0NAuDHOgZWcaEY7iOXIvRQsNFes2AsgyXNSqmP5Exof5z/+czmJ9+LcvE4QPeSz0jO4pAuIJhfmnDvhhRQNe2N35IGKaBh1cd01oiD7koiCyixkPKsnhWeKWEfcDEGg+SsI6FfGgoTIxpZEIs//WI0cZtvVE5hNblG04axQW+p2HL6EVYg2FwXuvVbO0c2VBauIFzJOF5Akb46UtvOyI1tFWUB57sHtZAAA+4w2VZ8fzJRHNqrygNiKV5TqHX10jMI6by09WlYaAC43XhxRKeIMRh3h7pQCTwchnTzbY81GI/hI9jkO4QxIBj0U3/9to98dJi0IjgYWKNCH0AecWjJHRACGbV6h1DI2jIZ4dvlBBwRNrGPJPvpPf80rj733WgWO+gUbwlCN2kxaEXdFSkAaFPgrdN40zjwrW1fBphDP+V8UNR4vO2LNxWFCNq3v3ttcZPXMC0v134Wa4rmBblpJYYNSJocVwbQUB3mAqIMGZBxcIDTo42CKFLjXjifVGxOU8I4rx5Z5/b7iv273f1DXtYSGU+f8UMd+S8KSP2Azw2eyEHUcRDZbtw/LbFdsmbeWNjAY3JJS/uiLzjMMZu6cF7JX/mafOg9PRjp7m5M1sjLzTMg41rpyzTGhGL5dLIEGPf3zMQecssSxtHbWOmaRSs4QjhpReGxBHnJ/2UMw3Nh76zLd6i0gjRgHL8cLmlJSzvcPSNxd+rxfDZHzgW+Q69dvbjvOGQwrNOmhE17HbflhGNoxZ1Q4Wj0nLjpwkZFSXLLExBBUlbj82b2RYJOtvgQeJhUQmpUIgV8WcqIV7nK/5o+FhjhIq3FhEC4rnmbSN8pPeO/9g35Km/44K5UT6o1KHYjxeEF4D0WIwd8X46jrcC6aShIZbONCL8XGelC49oG8viURfrf3cw+huC2NvboBZjp2EbLXjT1sjwkJOyDXsw5gVbevPgGtKIIPiMICHNiKnF57kXgHKxZeG9SJ4QZzMgPeEyC9FMZuRRT0Bq8agJKdxy397oCb15fOaZ4PlkQWU1cUyLUwIPoRjFAVkjAOxBHhW1Hq/XRiYkx9bCeHnUSSyPaSM6QtI81a//ReV3OsI3FfGyzzh++rB4Nvk3bxihpaFM8zCzRlmEmBfP/kvmtY24PlauybdP0zxqA4E++cipI55VZKXHjiWPuhgS6glIvS+8JIU6j1q2pZIybjgNe/03qysegmcafhsEYbMuOl5b8qGXNSYI5ANPdkcjUMbC40Z8wriuhYl4yHnQe5Yhu7zohOJloSi+q8FbgWkCbyKGx0vek9fB1qe9xl9EqIEG0F7GobHAI+YVcnulPGxMjDyhziIrPZyH8eI09tZzgrQXXrK2LRMKfYjSM3dGayQmaWYhFP6mrQ8NYQ7hQZt5lQgaFT40BA/wtpjPaiwaDSKNYJlZHonVhsux5MeTEBtgLLmto5EJuf/JA1E4iLBK2ogHC4c8tbUnEsLQ7OUWnhsk14XlG74xuWFLT5QHPG170GfpbBb0wGh4ighvLdsersijnoCUzaPOwjxiyPsIkYUE0jypvO94mCfLfgha0nttNnneJ8JI45H8gmDYSwB6GnkfQzIvNrwOeOVT/f58a4RzFCXrWpKPD7+qMiaadGWlqZEeNfdXGtxzePfhR5mMZI+rTMijFhOWQw+t8h9K2RA1KmgInhSVO8sslIJIMz+WIg3viEd1JL1PxJgXjMhPcighYvNrL97GT3+9P54qBsemJxEKGaETRDjLWJ8H5UyarPGgAWgmNAzWi0oakI60deR9shIJtb88/+j/XI356R+xTDQGLyV/6eUn6q1MJohb2/htHmYWIe2jQI0AYeDzohjTjQDRoIFAjAnL4CFaeIGhhHj6fDkvrbtuoQs4scYRDTYig2GPBsMn8ZSzLGt4ZUiYJh7eNRqOz4Nt4uH0kmwESNKAHlLaumofEjucMaG+0duq2G6L1ohGcZa3NYSXJotgI9L2kSa6vFkjQoxZM5rbsUMYEE6sUZ9ERYDx4hmCRx75IBNdfMIa9oAzzcNHrPAOCS8Ace1aXgCxhiZtOF+9hGkijEPMn/AK17EeSCMPKxljbQ0Lx7dhdoSoRG0o9DFG+AYQkS6VYFOh7EFT0nhxArK+0JZViXkgZSKNWCFm1TDPu9YKjFjifVXbj4dzeL4Y043EBNvCGRY+WDK3LRLgsLuOICJWpOM7XsQZyQJ45MR/q8H14kNJiGk42iPtwWFoeV+fS6aJz9JSpjQ2V148L/pFGvLB9eZDTIRS+JsHD0oZUkkjFIVpfHppzBilwrOKsQ5RHQ5Ed5UXjw/6iRcz7UWk009nvWd7m1+3ngm/3en+T5EPOK33+wx56X6/VfFkLn6foe38PpyH81WjdOnz617rtx2xzi9f65cTalobLypMox4m2sOhekg++KMyE2u2kRhpD5xMjBBWG2p3+vJpUYVGKOxNxIkCwomHbg818UiJORPOsLf1KAe+GmhvVpLP8JOulBtCDZTpt/06sJ+yOm/FjEicuWY2jcAjdohwvQ8TaUDweLkfkmkC0nWWF2fylYR0ZsFYb64taaUnxXjo8Jpy3LyfEbP0pD1MBI5VxgeKYzWO+jk/URl5n88VfrsbmfBCw0933cB0Hn67YaNI/Lz/Vx1/nqFM+/QN/VRYFcqevhH4k9Us2I0Saip6vd8bthEWyQpNJb51XVfqeGYbQ5yGic9EINkoIdD8CknYMCHir33ZLLfB9yrsdXO2w2tNlk0o1oydvuex7mECbEKKh8sxbESGCTU9lwcSQ/xCki+MkDZ+HYdrlibSIXjSZ580PYox2+vpeaSN7Q4ZjXMASQehLEioPYe5UOOe3OT3/6i37NfaAsZieF5RqPQM7aICITB5x0WQ+E5FCIK/bkP1OHaZMIFEVEl3XgNjDxf5JgeeYFaPAUF80zmzo9ADb3uGsXT79jPlh7dqZcw+jB3P+tFag/3wYsMGlJAH32f5h7s66y57rr15/mV+GWUsGCuhfspPHM+0F45N/g+Wxt94UbuDCb/PJf7Px5jOwx/3X719IZ5lvzXxZC7+PEM/sOvT9HFvfxrP5lHG9J3ijz+iEfTbRwLt7Rp/rA3RwoLUK9RifECsJ7OITQbGSqiHXnjx0A0vFKcV1fFlO8zbHo1AGxJqIcqFXng5TECgvRGWWeEL/Yp6RVoIMfmQUDcfCbQQYlRIqJuM7wtdJYEWQowGCXWT8ULd3M+QCSEOeyTUQghRckyo1w86txbz01lD84QQQowDkVD7/33Q20rMd9WjF0aEEEKUA/OohRBClBQJtRBClJxIqAecu8fbxtg+EK0RQghRCsyjXtbi3PLY5sXLhBBClACFPoQQouRIqIUQouRIqIUQouSMEOpB5zbHk0IIIUrACKFuqXwvWQghREnwuhwNz9vIiI9oSfBzVqKc8MMB8aQQoiQ084cDIhBqX/MHY6vrt/+EEEI0B3nUQpSA899zy9LpU/tzf577gJve+bNrX9cZz4pJhMWo+QG+42JbzQIhxNgxtW3w+/0DrRvzbMpAj94anqREQu3/t9l70Zti64rWCCHGlOkd893iY05LtbYp7fFWYjIyYtSHEGJ8aPViPK1jXqq5FlXVyUx09QedWxXY6dEaIYQQpcCa6c8EJqEWQogSof6UEEKUHAm1EEKUHAm1EEKUHAm1EEKUHAm1EEKUHAm1EEKUHAm1EEKUHAm1EEKUHBPqqwNbzwIhhBDlIBLqFudWBSahFkKIEqHQhxBClJzWQeeme7sgsHnxOiGEECUAj3qptzWB6aNMQghRIhT6EEKIktMyWPmtxI2V2YiVLc6tjaeFEA3mFe9dfUq/6/9ffnJWZYmviC1u6cy5S6YvOOrkeMlwntvwC9ff09056FqGfjOxxQ0+3jvQ+oaffe1y/SrTYY6EWohx4KL33XKur2c/bW2bOnXO4mO9ULe4tvYZbtqMOfEWw9n//A7nBry89/a6vds3uZbW1m0Hewde7EV6S7yJOIxR6EOIceCur15+r3eSXj7glfdg1243Y+4RmSINM2cvctM65rt9e7dIpCchEmohxgkT6+6unb27Nz/uBvlRvAz6+3rc9mcedgO9PRLpSYiEWohxpIhYS6SFhFqIcSZPrCXSAiTUQpSANLGWSAuDUR9LvX0/nue7Hx/U9z6EGB9sNMj0WQum9vbsl0iLCH9PCCHKhIl1S0vrbom0EEKUlIuuuvns899zC593EEIIIUTpGXBumbeNgS2LVwkhhCgBaa+QH9fi3KZ4WpSQi676waHxW0KIUnDXdW9s2jM/CfUEBKFetuK8eE4IMd5sfuyepgq1xlELIUTJkVALIUTJkVALIUTJkVALIUTJkVALIUTJkVALIUTJkVALIUTJQag3ezsuMOaFEEKUhNYW5/p4wSWwvnidEEKIEqDQhxBClJxWXiH3tiqwefE6IYQQJQCPmm99fCYwCbUQQpQIhT6EEKLkSKiFEKLkSKiFEKLkSKiFEKLkSKgnIa87c7Y788QZ8Vxz+OirF7hPv36RWzi7LV5y+PPW8+a4971yfjyXzsWndUTb8LcItv3JR7bHS8YWzv+FNy9u+v0i8uEXXi7wf9dUZiP0Cy8lZ7S/8HLdFUvcrOmt7vo7O926Dd3x0uqYuCyZ1+ZuumdvNJ0G27353Dmu68CAW7V6h9v5fH+85vDiXRfOc/+07vmh/CFoS+ZOcVdc/1w0DzRWt9y31z3xXE80TwP2wmXT3O0Pdrkf+n2rgUi/ZPl0971797o7H9kXLUO0j100NZquhd/t6B1KR1Hs/Lu7+t01t+2s+VoWbZCK8KtNB0p7LzX7F14k1BOQ0Qi1iSgV70Pf2RZ5gQtmHfJ658xo8yJ+6H5DeNL4yE3bUisNHvSqyxZFDcGzO3vdjhor1ld/sjueKjf0Sl5zxiy3dU+f+/j3tkfLkkKNSJ+wZKr7zeaD7os/3hUts20+70WviGimCbUtq5WHvNDVU75fetsRbr6/R+rZ/4Yrj4ynRk9YBmVDQi1GMBqhNvG4+9F9kVds3nUeiHpPv79TPIjzwb5Bd8f6falCY8evl9AbDaFBOfXoafFcOiaYY4V5xybEoVCT3gtP7Rgm5DRif/vWI4YaySLkCfV9T3S7jdt6o2V5HHfEVHfOyTNShZZjVWORT/fRCysNDtc+j+R9YULNudM4av6UqMwopz/sTv96xUlL26N7dLILNS+8vL0yG/EVf7bOeFqUkHqFmi7zJy5d6Hp8Zfvkzdsj0TWP+rHNw0X3wtNmRhWolsqRFGlrDPIg9vnOlXNd+5QW99TWXvfZW3fEa4ZjIphHlsg3C4T3U7486ZKTz1CoKYsFHa3DwgXmhYcedjXyhLrotbFeVJpQN9LjhWSa7PhZ18bykuetW7lOaqGO/4oJRL1CXaRSGLVWDhNpvMV/uKvT/eVF86LuMl7fN+5Ob/dpJM47ZWZVkYav/8XSaDtiu13dA/HS4YxVJUagX+rLMckrT++I8kyZhVhs+K8vXxR5pnlwbWg0EdYs2KbRQp1Mc70k48gS6sYgoZ6A1CPUiMvn3rQ4ErsiN3wtlSMUafMgzdtEuIhVX+sroVVgPHtE2kQrT8wBr/vKi+dFDyevumFrvHT8MOErCiJESIDeDHl4csvw3ot17U2kEfZLvOiDhQZoyPZ2HxJAxC0MSeXR3taSGWOuJqSjRULdGPgo01JvF5jFy8VhxjsuqIQXGg0jH5IiDfxlntgjgkwjwbaIOoLFMvZh5EmeSMPJR1YEfeueQ0JVCzQMxOLxyhsxzAwhRVhCQ4CN5DrE14T3Gb8vghSawTRChPdt6yxu+8CT3SO2HwsoO64ZgppG0aGeNG5pxsNr4G/aeoyGZrLDU6RLvPEw0UwcZlCReOjVDBBZxCht6BbzPEjDo6aR4IGWxbDZhwdqRYYHHjnvUGwawcDDwggl4JlXA5HEYyUNZ59U+2iJJKGQYpWRMoceyOIF7/KNkK1H2F8Ulz89jSTsGwp9UX7ivXTKN7Rb13VF6x599uDQMkJR1mDkQVkiykm4Znj9aZz3nyq9nWrXgR5Imtn9wN+09Ri9gcmOXniZBLz+zFnxVHNAjJIijadFpceLtRBH1FWPRw3Q3cXLZeQE2+K5ZWFCTWVmP7rBGMdlZAXDx9IE0CDsgBBi9z+ZPvqgHkgz5yZdhG/oPQAeIOki/6QLEbPeTMe04VXOvNF9B2sX6jTmzmiNyiYccmkNS7WwAXF38hJ6yOxLudGYJK8ReTMRpdHIw3oXSbMy42/aeqyeRuxwQ0J9mEO4gYqLSFqlaDRUYMQW0cXTJS7J6AYqPcLMKAdCHHjQjDZhNAheNpUfT59tCYewH8LHMUzkwMSAfTgO8U4serDoKzHriYdngdgQ28ZqecEnDzz7D79qQXRu8hOGb8gnMWXyT7oYS075W57DRuUFCyqNUNbQtCShWDLsLhkmYBlkhRKSYhvy+B8qHvf5K4aHMnbvqzTCZ544vDfyJytmRn/JW7KhTmK9i6RZvvmbth5rVCM2kWlb5dzp/u+llVnnro7+iTJz/FlvWDVn8bHxXDYIwjtXVj4vfuPP9roVL6g8tHrkmYPu6W29kTBe+sezU43t4LRjpqWux1r8fx977cJo5MZ/OqrdLZ4zJdqPBoEHZrf9oss97M91xvHT3RFz2ty/e6+zu2cwWrbm1/vdvb/tdgd6B13/wKCb0triZrS3RsYxqJz/+6GKl/ajX3a5/QcH3bfW7HG/33VI0B7/fY9b99QBd8ELZ0b70CA9uLFxHnMW9gCMvJAm8yYv8kJIOkjvzx/b745dPNVN8d71F360y23c3uuO8qJM74A8k3Z49UtnReX2C58PWxZy1kkzon2OmNvm3nD2HDd3ZuW6sIweBdcnNOu94FEn12Gk74ENh8qI68j1uuuR/a7Np/WPT5geXYPQQybswXEP+PxyDY3LzqoM7UTgw2OGcHygTNKw/G3p7Ms8hpWr3bdlZO+OZ9zT61Y3TTvlUR/G4OXgcdItT/MkqaBZZiEK88TT7A++ctE1xXvkHDyVx9MlLoonxDmtK572ogTp4zVqxhTjhbIvHjOeMqNEQrK67RxjQzyK4njvwY4F3/X5JL+8Hk8e8VLpCTztyyEc3UAZ/NUtlSGHePUWdrF4NVhYB2E3CD3QEyIGT4MAlCHXhNi3YWUeGsuAa5JchxEGMkLPHshLWpjDXqqxtBpLfOMBjQwniXR44YWXXW6ozEbj9fSIteTUMjyP7q6JXC3DnGrZlgqfNq4Y8JgIASAcjFzIY0/3QF2hCWLAxIQRmfEYvkeYhjwW+X4HMXt49ze3RGJIyIfGMHxT0Tz2kPDlIVufdm243jyAowGlocjDtqXRpXEFywuCH4ZzksPsaEyKDJm0/UhrGkXuj3B8erV7cbxo+vC8+K84TBmLGxuRDp/Sh0YlBP6mrQ+t3oee+w6O9NabCUKJAJlZHom1h8sxGryQZ3f2RQ8WaVxe+7JKfi02bBBisLg+ggtbOw950jakjZdLGs2m7ZW0LFs43HtGkAFxh9OPrfQKGG5YhLTrjRW5P+wZxWRGQi1GTdq4YjMLoaStCy0LBA2xI7SQxdGxqIzVQyeGuSXTHeYFQ2jB8m/828OVhvMs75GeGA954wt8IXiyhIOyehf20awTlrRHZRMa3icQV06uC0dzAF9BhPBBoMWmLdZtWNnaw8pTjqqkfYP3hLOw8AkinywfM7x54G/aeswaicmMhLrJ+GrKi0SH9Q8GJ8cVmyFoeI907dPWm+XFOPEkCcHgVWWNWLAxvsSIxwJ6KaQbzxcQk2SejIc2VQTbQHwRJeLAlA1d/mojJpLM72iLjmHx/3DIH28qsi5stFjPdmwfYjHnPfsPbUtauF5g3jMwKoPl2/16rgPXg0YoL9Rjn2Jl1EiyfMw06qMYvJm4xdtas3i5aBC+TP/c20Zvq7xNql9458NOUK2LbgKSJliIonlUeNfJB2DEVBE9tkl6piHsizUK0sEoCuDrcqGocR6GHSKYaUJm4gTV4vZJ8IoR+LCsGGFjL7ekWfKVdcOEOvkFvuc6K+kz7xkQTOLo5MeG6RHGycP2r/VTt2Ikrb6K3OFtpVm8XDQQ31FFoD8zmQQbAcWLwwur9gU9I+sTmt/x++O90R3nW9fEiDFemCG2yTq2yfJMEU4eNmKNEmvOxagPvGnySSyV8ALp4jykKe0LeQhtOOrjNS+bNaLxycPGOOeFHIrAOc0rTj7HYCgd3xvPerXfHhxXa2Qszl1N0EV1IlfGV49TvA197yPHKo+sPUwn1mXZKfEuESnrUy3ePMLPT9j0+dVDaZoMgo0A2MgBRODm+/JHQUDouaVBuIDxyhYyYMQDxjTLWJc3WmRme3SbR4TTowWxxtPkJR5i0gi2jdZgyGCy4UCk7ZOubE8jRh54KaaoWB+zqFKu4XC+evizMyvjm9NElFBWVqNnYQ96MHkPqtnO4tyjTauIh+L5juUNfiL8JnUWV/jtbmTCi8ywYX1Z+O1u9FXjiniWef+vOv48UdrgMErfMPyJOv1+1/rJmr4BXu9nTvH4EBMb5oR3mfUxfuKgFl9O+0IbFTnpMfJ24stfVHn5BDGpJqCAQNkvwjDKocj25tHV8tNMjEuGLC+xXkgPD/B4OEgeKK8O/5eyQ8we8PmhR0HZXPLijqG4NJ90ZV/7wiDltfr+50eIHx66DcXj4R/euu1vw+s4T14clxg1abPrznnDLykyLLLoiBv7Eh/ptTcWQ/jGCPm1dFtas7DtLM6fBg+SOeekHp7nL+9l/i8mxhh/Vc3DvtPbyK/hNBneKkO404xKDFSQtPVUduAvgk8YguFpCAKvSuNlJkWXMcQMWWNbG4nAL56wD55xNZEGhJnKihUVaUCgGyXS5BnhpeeA4CGelBdjnYnj/t0/74oEKspXZ38kRpRNKNJA+vmYFeLOOkSX1/ARYCufMEzCG6DAbzCOBvuSImVOOdpDySLG/QDsn7aeewpv2noWtcbgw7xjJtLQjOGIE4URL7xUQR51TJ3pG4Y/0Qa/3zV+8ib/t3Agr1EedSPAU+WreEDFv/uR/ZnHtvOH4A3y+dLr7xz5YaeyYl4gmNfMsLZk+hF0voeBSEPyJRKD7d7vj0mowH4YAdE2CJN8e+2eyPvmQZ/1ZMyjzvNGIfTKuTYWsy/Sg6kHhJrvoHA/2JuZWSQ9anuRJkmRXwsaT5r+wwGhoPnpzf5MeQqww6+PXtr323L3FfECu/w+Q1fL78dPf1XF7zP0u41+H85TpG9WuvT5dV/02w7rsfhldQm0Ua9QU0HxeLJ+77BeEOv1vzvYlEpfRhDWt3iBZFhhkTxT7njW1RpHvPS84W6cF6xBYJ4wkP2CTBYIJ0PlwlARyxp5DyRBcJ/amh3rPtwYa6He5L3L45gWjSH0tkcr0Ea9Qi2EaA56hfwwAIH2fwjLrPB242hEWggx+ZBQN5+/k0ALIUaDhLrJ+AJ+VAIthBgNEmohhCg5EmohhCg5EmohhCg5CPVqbwzJwzTmSwghSkZrS+WFj02YV+3N8XIhhBAlQaEPIYQoOfxwAJ/j5JObqwac+0C8XAghREnAo+abyZ+J7f3ehBBClAiFPoQQouRIqIUQouRIqIUQouQkhbqxv1MkhBBi1EiohRCi5PDDAav8X0Z88N3ktV65VzItygs/HBBPCiFKQjN/OABxZgz1IDbg3Jp4sRBCiJKgh4lCCFFyCH3wwgsGfPMj+hVvIcTYceFVP7ikdbBlaTybTptbf+e1l6+P58QkonkxFSFEYS666geEHc1hSsU7VVfffd0beaYkJhkKfQhREmbOXeL4dfk0a5s6Pd5KTEb4KNMphD9iOz1eLoQQoiQg1B/zf+l2rfHTX46WCiGEKA0KfQghRMmRUAshRMmRUAshRMmRUAshRMmRUAshRMmRUAshRMmRUAshRMmRUAshRMlpbXHut4POrcX8vD74IoQQJQOh/oJ3q1fG9sF4uRBCiJKg0IcQQpQcCbUQQpSc1gHnvu9tY2xfjJcLIYQoCXjUS1ucW4756UXRUiGEEKWhhR+09SId/bLEoHM3euW+IlojhGgKr3jPD07sbxlYFs9WaGn5cse8pacvOOrkeMFwntvwC9fX232jGxj8x3hRRN+0gUd/9qW37IhnxWGKYtRCjDEHXUuXa225vqW1dc2QtbRU/dGOFtfy9sQ+/7ebfVRnvFocxsijFmIcOP89tyyd0jawpq11ytGLjjm1o21Ku3eb2lxb29R4i+H09fW4lsEBd3D/Xrfr97/11Xbw1t6FS/7bz65e2RdvIg5j5FELMQ787GuXb+nrb13ZP9D37PZnf7PLtbRmijRM8UKOWO967omDEunJh4RaiHHCxHqgv2fblqd/tavfC3EWB7v3uu2/e/igGxj4sUR68iGhFmIcKSLWEmkhoRZinMkTa4m0AAm1ECUgTawl0sJoGXRuqf87vTLrulqc05hMIcaJodEgU6YuHejvnyGRFuB1WQhRJkysvRf1qERaCCFKyvkf+u6i8z+zZko8KyY5hD7e7v/ynQ9Y611sfkBACCFESRj2ZqLnaj+9Kp4WJeWiq37g21chRJm467o3Ni2ULKGegCDUy1acF88JIcabzY/d01Sh1vA8IYQoORJqIYQoORJqIYQoORJqIYQoORJqIYQoORJqIYQoORJqIYQoOa0tzvFjmVfHprcShRCiZCDUN/KSS2wSaiGEKBkKfQghRMlpHXDu7EHnLojNPs4khBCiJOBRf9/bmtj4kp4QQogSodCHEEKUHAm1EEKUHAm1EEKUHAm1EEKUHAn1JOTkI9vjqebx1vPmRDaZOPPEGe7i0zriuXQoe7Ypeg1s+4Wz2+IlYjLCL7xsbDk0LE+/8DIBGO0vvHzpbUe4jumt7ltr9rh1G7rjpcVBPJ54rieeGwnrP/yqBdH03/3zrtxtJzIIc1h+X3jzYrdk7hR3xfXPxUsqDdZN9+yN55x73yvnu5csn+7ufnTfsOVZ2Pbfu3evu/ORffHSxoD4v9Qfu1HUkj7ukUtOz2/UQnZ19Rcqr/Gi2b/wIqGegIxGqKkgn7h0oes6MOCuumFrNH/soqnxWueWzGtzC2Yd8t6Omn/oh7ARISMUoyQmWE9t7XUPPFlbQ9BoMWoWrztztnvNGbPcbzYfdF/88a5oWVKoEekLT+2IyuGzt+6Iltk219/ZWaiRTBNqW1YrD2064L76k93xnIs89Tef27hej+Wb465Ylt9jeGxzT03n3rqnz338e9vjufIhoRYjGI1Qf/TVC9wLl00bqrRf/4ulrn1K8ftrt/dsevoH3a3rulKF5l0XznPnnDwjnqudvAYA8GJPP3aam95eSfP9Tx6oq1fQCEx0zTsOhZp0XnnxvKhBXLV6h9v5fH+0D+Xd0zcYNZJFyBNqGoC93ZXj5jFnRps7YcnUTKGup0ENeaX3jOf7xt2uXZGGhPwUOfdxR0yN7icJdeWFl6XRjHP/6O1GpkV5qVeo6ep+7k2LI2H+/G07o5AEws3yP+zui7eqsNx72VS++57odv+07vkhocnDPEiDfTdu643n0pk1o9Vd8uKOKE00Ah/6zrZ4zXBI4/u9ABy98JD3b1CJ8WqLpLGRWIhnw5ae6PyhUDM9v6NtWHgpFEbzsKuRJ9RFwyF23iyhTi6vlTDfEPbSTGi5tj9ZPzytRc5taZz0Qh3/FROIeoU6rSuehVW+omJgx8ZbvOfx/e68U2ZGy/Pi4HidbzpndtQgUJGv8Y1HltgSV2c7PNQH/PG2dvZHYZqz/DFmTW8dt4qMKFkMPhQsGpaFPr1hfP7Tr18UebbkYd9B7yKl8OizB/0+ve71Z86K5jumtUb5s54M0Kg2Uqgpu2RDXQsnLW2P0mhCHZIltGlpsgYoXCahrqBRH5MIRA1G081NIxRphJkwAH+B7j/hkCQse+fKuZH4PruzN1ekqcAm5oQROD4Cxd/r7tgdnReBRPjHAsTjhiuPjIx4v02TBmD6b996xNA60o9wH71wSpTWpEjjedu+tXDWSTOiY1cztsuDcyOQ9RoiLZqLSngMiD94NVKtxhCEsRkVKinS5j3zl3mW0/XF20RI2f66K5YMxbEJj/zVLYdiuGngsQFd5+R2eKx48HhhWSCSeLN/ffmiaHq07OkeiDy80PCSjeQ6RiwQxyW8Q5gEzzC0ffG+TNP4UHa27km/PZB3W2bgnacJZ9LYLg/KDm84NOLuacsxlrPe5nmgSj5F8+DreRsDuyxeLhqIF+k/97bR26rxEGzE6YzjGzcMKwQBoZKmhTiY/+TN2yOPGa8N7xpRp8Eg/MLQvW/c3RlvnQ7izvYIYVY3H3Gjq5w8v/FnZ86OxIr49lt8N3q0hEKKEa4IG0HCCDxstfWUkfVm0hoKegs0aLVC6CMUUIxnDwhpuI4RJtZgFOXUo6dFIp8Gy1lvEJ8nn6J58MMBywOrBMZEw/Fli0B/ZjwE+8qL59c0sqMW8HCppEmRRJDwnrMeAC6Z2+YuP2dONMwtz8s9+cjKvrv3VUTGjkuXnl5CkXBH+EDz2Z2N9fx4GEvjQ2NEaAZetGxaFNYhnUDjYELe3jb8OhDjBsvfaOEhHkIaDo+zhoUGLQvSQUjHzNIZLjMD1qctB46VDLsQa7dlVi6iOC1eMMKm/G+83VGZzORxfwm3MOF3ZLTIKUxXYYvf5/F4OgoFxJO5+H2GfnHG78N5otEpVShd+vy6j/ltL4lnI/yyTr/sWj/5Ff83361MUMvDRCoQD2Oi2Kj3SvHeijyEqvVhIgL6JytmRnFYxl6HMVcE7PE/9ESjR3jBgsrLdmHjYQ/YEP6DPq14f3iiiBzCg5fIMh5SJhsdvPPr79ydGz4xQWzUyzeUqw1Ls4ezVmZ4tX950byhdUB+rfzxcg27PuF47BCEjfyH1yFtmWHHo7zyRlNAuC1wzNFg+bLjZoF3f/cj+0ek0/IVLrNjsU+Zvfamj/rwguH/1cQVPjXRED6/I9+vvoHpPPx2N3p/4op4lvlC5/TnGcr4gD+Pnynyveyyp28Y/kQ1C3ZRoUY8bTje7Q92+e739GHii7BkwQMu9gtHGyS58+H97uI/mjk0MiGEivW0Fym8Wby7tDfL8KZPXDLVHTlvSiRgIZyXoXpWeZlnG477wIYDrqt7IDou3ivpxKMl1j0WhGPFibFb+CY56gNvG8/zH+7qjDxd0pslullvKtp6hHz2jFa3I26MWFYPaSLIsjt8oxi++GSNEGlNwj5cDxrSEMsTebc3HtOG5xHjn+vzkiXU3Ks/9I06SKgrDK9dYszxV9ZCInd6W1RZ2hjMw8Srsxs/BFHJMvNaqaxp6zHiZgZCSaWjYiNUVCoTMCofYpyENOFFIsgfuWlbtC/ChyjdfN/w9JIO8sFx2Q9RoILb6BLCK1TqsWDtb/ZH+SX2Sx5NlGmYTNgsJIRI48WTXgu7nL78UHzX3vxc5xufEEI6NAj2IJWXlJIhJMqDMg/NPHiELbkO443ANCyNZtY4h8vMgPVpy4G82zILO4XbZz1LmBbfczTCYjit/nLcGNuGeJkYQ+JypxdwjreGu4QPPn0gCgukgaBmGRUdTHjTjEqHGPGWHd4swsmyEDwqIJyRh1VuhA/xTqvMaflgOxOnasPQGgWiRn4tjYRnEFLelkzmPwy1WGN5TOy5IvA0eIR9wu0QfR684olaT4XGi5CKeZ/AMEvmQ2MZ8EAzuQ5Lpg94c5FGLrR6YtQYeaoX2/dXvkERwxnyiXw1wpsr8jBxh9+piwm/D9sX8QK7QhHy+xX6bUa/z6Z4ckKnz6/7ot922Igav2yDX3aNn7zJ/63pCVe9L7zUEneuZVsqKN3T0ZLWvQ1DH1lvLdo2Y9U95mFYOOrBwkTWuIXQAIWxZ4YI4hlTrhYWSManyQ9vhhLXP8JfA0ashNcBIadhsLdLQ+xa4D0jzHk06rqFJO8XO0fy2qSlkzHnwLaMpCEUlLV/2Riz0Ic/AwK3qYBFIghMJ9Zl2TBPMWV9qsWbR/j5CZs+v3ooTQi0/4MHvcLbjd4aOwxhHEgbV2xmw87S1oWWhYULpsbd4rJBY5Yl0qxLepgPbToY/b3wtJnutGMqYv+jXw7dHhHf9WJHo0TvIu1bHuExEfXQrFdBSCW5zh6oGtbboUeCwGI0iGDzNCLAX1uWNGLKNl2vN2wjQehdUG72YTC7t2jwJjOKUY8Rh6NAGzb8K2nfXrMnEjEqX9p6M7bL4ueP7Y/+EgJICo1B1x3GqjLj6ZFuRi4A8epknohXg/01CH+YGJEnRCjpFVfLBw9vEVQbiheavdzC8ZPrwoeFYB+2IlyCF4wlY9PfXrsnSu+JS9sj0bTlGKJMvJ1vtTDNsmppp5HhIfLvdvRG4TPzpq2HYi/4GHZvpY2ImUxIqMeGvzscBboajJOGZOVLYgLSdaAiEiFUfItBv2Pl3OhvCA/dTJySnmkIIp8l9PWA4LzmZZVIFyMxQi+XNPGCEQJnD1RDHnmm4qWCiX1RyAMCv2vfoQduhA+Szw9CY30a4Sdss6D8v+MbJhpcvstCPjE8dEYUEYKBat+1pnEh7MOr9XweNmw0eGhKw0KjlfWwkxAI+/N3MiKhHgN8IT86mQQa6MoioIQ+6MoXIeuTnbfctzc6DpWZjzNxbCosYsGLJUDXPOmZGmzLdzewRlV0BOx23zAgLniriBbp4fikCWFD4JIgchbyAEIgtXDBCyvbb9qe3/gVgdg64AnngVfL8EFG3pBPjDwzLpzlvH2aPAblQCydYX5A40Jsnp4AI3ssREKjRpye68vbnHmwfzhiZjIhoRYNByHlbT244z+qd4f5Cl4eCDCvmyOKiAXH5gETYoEgJh/GJQnf0gunRwviRLec2CxvFpIe0kWa8GJtVIiBSH/KNxYW8rDGh++QFOWUoyrpTw7nqxXCD6STsE0ROB+izD4YgsvQQ8JAyeuLQFMOeNtcL86BOPPw02Lv7MN9Yg0t32tJlleIXbdqo4cOV/JriCglx5/1hlVzFh8bzxXnIu/lIBJ0vZ/e1ht5Pa/y3VAeQCVt6bzKQ7KZvsuKF5Ncf5Lvgj8cdOGBbvn7/8t8v32lG0zFviUxHjoNKjXp+sVTB9zjv0/3FHd6Ybjrkf3uuc5+N8XftVs6+yKB/sG/P+9+/GC+J7Zha69b8YJ277EPuG/+dI/r7mlsZZ/S1uJedPQ0N3fmoerEuPHTjpkejQ2mrCmbD/2XBZFwIXJfuH2X94r73IuPneYWz2mLvEoeNCbTRllzLK7ZCUvaIw8U4Vv9wPPRPN4549kRxeQ1MiPEEV53ePv5c6Nlv3z6wLDraPcIYSTE/LKz5kTDD+fObHXfvHtPVP68pEQ+eEuUPNIAbd/bP5R2QkHLF0+Njv21f+t0//uhfe7BjQeiawhs/94/nR99/6TNJz582cfyRBn9uxd3g7deF8+ZknuPjCd7dzzjnl63+up4tuH4SywmGo0ankdXHS+wHvAI8SYBESIeba+FE5slLJDsDtubkMSiLcxhP1DAPkV/9aQMIDZ063kIRpkCsXTGeiMqL3/RzEjwECG+nX3Z2RUPFgEKP+mK8FqoBA8bz5LvUZ99UuW6WPlwzcK3BSlbGloauaIk9+N8hC1Cj5gvG5Ju1pEmsHSFb07iDdu3wA2u4U9/vT/15Soj3I/j0uMKt+deIkQF3GOGlXHakMQyoB8OECNolFBTKZIjAYrCCAC6quHr1FS8X3svl5h0WPkNO38SKjjx3Lyub5lINnAItI2cCMEjBR6eAZ7wtT8Z+U0SxPptXsAQL0Imyd8TtDADvyZDiMUaSBPccCxyGpZeu+6c78qL543YLxRJrskzO3rdzx7rzr0u5JHX+Gmkw7SlwfHJAw0AIsxonzTRrbcRGE8k1GIE9Qo1sUM8wazfO6wHjscX8jbv7Kv6k10IBN94CGGYVhk9pDwQHEagMPSO18mrpZ8YND2IPDGlHN9xwdwo1s50OIrCGgDKr9OLoZ2PdPBL3gh7spEIQdCJ8fI9D9sXgU0TPUQSQu+5kdg9kJfeiYiEWoygXqEWQjQHfZRJCCEmORJqIYQoORJqIYQoORJqIYQoORJqIYQoORJqIYQoORJqIYQoORJqIYQoORJqIYQoORJqIYQoORJqIYQoORJqIYQoORJqIYQoORJqIYQoORJqIYQoORJqIYQoOfrhgAkIPxwQTwohSkIzfzhACCFEqXHu/wf6V3aGfu2TkgAAAABJRU5ErkJggg==;" vertex="1" parent="1">
          <mxGeometry x="-413" y="110" width="362" height="569" as="geometry" />
        </mxCell>
        <mxCell id="iYR4mTYANWKFLJ5COur8-12" style="edgeStyle=orthogonalEdgeStyle;rounded=0;orthogonalLoop=1;jettySize=auto;html=1;entryX=0.5;entryY=0;entryDx=0;entryDy=0;" edge="1" parent="1" source="iYR4mTYANWKFLJ5COur8-3" target="iYR4mTYANWKFLJ5COur8-4">
          <mxGeometry relative="1" as="geometry" />
        </mxCell>
        <mxCell id="iYR4mTYANWKFLJ5COur8-3" value="概要设计" style="rounded=1;whiteSpace=wrap;html=1;comic=1;fontFamily=Comic Sans MS;fillColor=#ffe6cc;strokeColor=#d79b00;fontStyle=1;container=0;" vertex="1" parent="1">
          <mxGeometry x="-670" y="240" width="160" height="40" as="geometry" />
        </mxCell>
        <mxCell id="iYR4mTYANWKFLJ5COur8-13" style="edgeStyle=orthogonalEdgeStyle;rounded=0;orthogonalLoop=1;jettySize=auto;html=1;entryX=0.5;entryY=0;entryDx=0;entryDy=0;" edge="1" parent="1" source="iYR4mTYANWKFLJ5COur8-4" target="iYR4mTYANWKFLJ5COur8-7">
          <mxGeometry relative="1" as="geometry" />
        </mxCell>
        <mxCell id="iYR4mTYANWKFLJ5COur8-4" value="合约/链码编码实现" style="rounded=1;whiteSpace=wrap;html=1;comic=1;fontFamily=Comic Sans MS;fillColor=#ffe6cc;strokeColor=#d79b00;fontStyle=1;container=0;" vertex="1" parent="1">
          <mxGeometry x="-670" y="300" width="160" height="40" as="geometry" />
        </mxCell>
        <mxCell id="iYR4mTYANWKFLJ5COur8-10" style="edgeStyle=orthogonalEdgeStyle;rounded=0;orthogonalLoop=1;jettySize=auto;html=1;entryX=0.5;entryY=0;entryDx=0;entryDy=0;" edge="1" parent="1" source="iYR4mTYANWKFLJ5COur8-5" target="iYR4mTYANWKFLJ5COur8-1">
          <mxGeometry relative="1" as="geometry" />
        </mxCell>
        <mxCell id="iYR4mTYANWKFLJ5COur8-5" value="平台网络运维" style="rounded=1;whiteSpace=wrap;html=1;comic=1;fontFamily=Comic Sans MS;fillColor=#ffe6cc;strokeColor=#d79b00;fontStyle=1;container=0;" vertex="1" parent="1">
          <mxGeometry x="-670" y="120" width="160" height="40" as="geometry" />
        </mxCell>
        <mxCell id="iYR4mTYANWKFLJ5COur8-6" value="应用测试部署" style="rounded=1;whiteSpace=wrap;html=1;comic=1;fontFamily=Comic Sans MS;fillColor=#ffe6cc;strokeColor=#d79b00;fontStyle=1;container=0;" vertex="1" parent="1">
          <mxGeometry x="-670" y="480" width="160" height="40" as="geometry" />
        </mxCell>
        <mxCell id="iYR4mTYANWKFLJ5COur8-14" style="edgeStyle=orthogonalEdgeStyle;rounded=0;orthogonalLoop=1;jettySize=auto;html=1;entryX=0.5;entryY=0;entryDx=0;entryDy=0;" edge="1" parent="1" source="iYR4mTYANWKFLJ5COur8-7" target="iYR4mTYANWKFLJ5COur8-8">
          <mxGeometry relative="1" as="geometry" />
        </mxCell>
        <mxCell id="iYR4mTYANWKFLJ5COur8-7" value="应用端编码实现" style="rounded=1;whiteSpace=wrap;html=1;comic=1;fontFamily=Comic Sans MS;fillColor=#ffe6cc;strokeColor=#d79b00;fontStyle=1;container=0;" vertex="1" parent="1">
          <mxGeometry x="-670" y="360" width="160" height="40" as="geometry" />
        </mxCell>
        <mxCell id="iYR4mTYANWKFLJ5COur8-15" style="edgeStyle=orthogonalEdgeStyle;rounded=0;orthogonalLoop=1;jettySize=auto;html=1;entryX=0.5;entryY=0;entryDx=0;entryDy=0;" edge="1" parent="1" source="iYR4mTYANWKFLJ5COur8-8" target="iYR4mTYANWKFLJ5COur8-6">
          <mxGeometry relative="1" as="geometry" />
        </mxCell>
        <mxCell id="iYR4mTYANWKFLJ5COur8-8" value="前端编码实现" style="rounded=1;whiteSpace=wrap;html=1;comic=1;fontFamily=Comic Sans MS;fillColor=#ffe6cc;strokeColor=#d79b00;fontStyle=1;container=0;" vertex="1" parent="1">
          <mxGeometry x="-670" y="420" width="160" height="40" as="geometry" />
        </mxCell>
      </root>
    </mxGraphModel>
  </diagram>
</mxfile>
